<?xml version="1.0" encoding="utf-8"?>
<!-- Generator: Adobe Illustrator 23.0.1, SVG Export Plug-In . SVG Version: 6.00 Build 0)  -->
<svg version="1.1" id="Layer_1" xmlns="http://www.w3.org/2000/svg" xmlns:xlink="http://www.w3.org/1999/xlink" x="0px" y="0px"
	 viewBox="0 0 151 124" style="enable-background:new 0 0 151 124;" xml:space="preserve">
<style type="text/css">
	.st0{fill:#71C391;}
</style>
<g>
	<path class="st0" d="M62.1,79.4l-4.4-4.4c-0.6-0.6-0.6-1.5,0-2.1l28.7-28.7c0.6-0.6,1.5-0.6,2.1,0l4.4,4.4c0.6,0.6,0.6,1.5,0,2.1
		L64.2,79.4C63.6,79.9,62.7,79.9,62.1,79.4z"/>
	<path class="st0" d="M92.9,74.9l-4.4,4.4c-0.6,0.6-1.5,0.6-2.1,0L57.6,50.7c-0.6-0.6-0.6-1.5,0-2.1l4.4-4.4c0.6-0.6,1.5-0.6,2.1,0
		l28.7,28.7C93.4,73.4,93.4,74.3,92.9,74.9z"/>
</g>
</svg>
