<?xml version="1.0" encoding="utf-8"?>
<svg version="1.1" 
    xmlns="http://www.w3.org/2000/svg" 
    xmlns:xlink="http://www.w3.org/1999/xlink"	 
    viewBox="0 0 151 124">
	<g id="pin">
		<path fill="var(--theme)" d="M76,101.6c-3.5-8-12.2-18.5-18.4-25.9c-1.8-2.2-3.4-4.1-4.5-5.5c-4-5.1-6-11.2-6-17.7c0-16,13-29,29-29
			s29,13,29,29c0,6.5-2.1,12.6-6,17.7c-1.1,1.4-2.7,3.3-4.5,5.5C88.2,83.1,79.5,93.5,76,101.6z"/>
		<path fill="var(--white)" d="M76,25c15.1,0,27.5,12.3,27.5,27.5c0,6.1-2,11.9-5.7,16.8c-1.1,1.4-2.6,3.2-4.5,5.4
			C86.3,83.1,79.7,91.3,76,98.1c-3.7-6.8-10.2-15-17.3-23.4c-1.8-2.2-3.4-4.1-4.5-5.4c-3.7-4.8-5.7-10.7-5.7-16.8
			C48.5,37.3,60.9,25,76,25 M76,22c-16.8,0-30.5,13.6-30.5,30.5c0,7,2.4,13.5,6.4,18.6C57.5,78.3,76,98.2,76,107.5
			c0-9.3,18.5-29.2,24.1-36.4c4-5.2,6.4-11.6,6.4-18.6C106.5,35.6,92.9,22,76,22L76,22z"/>
	    <circle fill="var(--white)" cx="76" cy="54" r="13" />
	</g>

    <g id="x">
        <path class="theme" d="M62.1,79.4l-4.4-4.4c-0.6-0.6-0.6-1.5,0-2.1l28.7-28.7c0.6-0.6,1.5-0.6,2.1,0l4.4,4.4c0.6,0.6,0.6,1.5,0,2.1
            L64.2,79.4C63.6,79.9,62.7,79.9,62.1,79.4z"/>
        <path class="theme" d="M92.9,74.9l-4.4,4.4c-0.6,0.6-1.5,0.6-2.1,0L57.6,50.7c-0.6-0.6-0.6-1.5,0-2.1l4.4-4.4c0.6-0.6,1.5-0.6,2.1,0
            l28.7,28.7C93.4,73.4,93.4,74.3,92.9,74.9z"/>
    </g>
</svg>